<svg xmlns="http://www.w3.org/2000/svg" width="42" height="42" viewBox="0 0 42 42">
    <g fill="none" fill-rule="evenodd" stroke="#FFF">
        <path d="M35.92 19.088c.24 1.117.367 2.273.367 3.457 0 9.473-8.084 17.153-18.056 17.153-9.972 0-18.056-7.68-18.056-17.153 0-9.473 8.084-17.153 18.056-17.153v17.153l17.689-3.457z" transform="translate(1 1)"/>
        <path d="M32.543 19.748c.194.904.297 1.84.297 2.797 0 7.665-6.541 13.878-14.609 13.878S3.622 30.21 3.622 22.545s6.541-13.878 14.61-13.878" transform="translate(1 1)"/>
        <path d="M39.776 13.862c-.735-3.409-2.534-6.45-5.053-8.795-3.257-3.031-7.716-4.9-12.636-4.9v17.001l17.69-3.306z" transform="translate(1 1)"/>
        <path d="M22.087 3.855c4.093 0 7.384.824 10.093 3.345 2.096 1.951 4.01 4.382 4.622 7.218M18.231 29.556c0 1.224-1.044 2.216-2.332 2.216-1.288 0-2.332-.992-2.332-2.216 0-1.223 1.044-2.215 2.332-2.215 1.288 0 2.332.992 2.332 2.215zM15.548 17.168c0 1.223-1.044 2.215-2.331 2.215-1.289 0-2.333-.992-2.333-2.215 0-1.224 1.044-2.216 2.333-2.216 1.287 0 2.331.992 2.331 2.216zM28.135 21.14c.268 1.196-.537 2.372-1.797 2.626-1.26.254-2.498-.51-2.766-1.707M12.177 23.339c0 .438-.59.793-1.317.793-.728 0-1.318-.355-1.318-.793 0-.438.59-.794 1.318-.794.727 0 1.317.356 1.317.794zM31.294 14.645c0 .438-.59.793-1.318.793-.728 0-1.317-.355-1.317-.793 0-.438.59-.793 1.317-.793.728 0 1.318.355 1.318.793zM26.934 8.865c0 .438-.59.793-1.318.793-.727 0-1.317-.355-1.317-.793 0-.438.59-.794 1.317-.794.728 0 1.318.356 1.318.794zM25.88 29.21c0 .438-.59.793-1.318.793-.728 0-1.318-.355-1.318-.793 0-.438.59-.793 1.318-.793.727 0 1.317.355 1.317.793z" transform="translate(1 1)"/>
    </g>
</svg>
