<svg xmlns="http://www.w3.org/2000/svg" width="30" height="24" viewBox="0 0 30 24">
    <path fill="#FFF" d="M26.916 5.981c.02.263.02.525.02.788C26.935 14.775 20.748 24 9.441 24c-3.484 0-6.72-.994-9.442-2.719.495.056.97.075 1.485.075 2.874 0 5.52-.956 7.633-2.587-2.703-.056-4.968-1.8-5.749-4.2.381.056.762.093 1.161.093.552 0 1.105-.075 1.619-.206-2.818-.562-4.93-3-4.93-5.944v-.074c.818.45 1.77.73 2.778.768-1.656-1.087-2.74-2.944-2.74-5.044 0-1.125.304-2.156.837-3.056C5.12 4.781 9.67 7.181 14.772 7.444c-.096-.45-.153-.919-.153-1.388C14.62 2.72 17.36 0 20.768 0c1.77 0 3.369.731 4.492 1.912 1.39-.262 2.722-.768 3.902-1.462-.456 1.406-1.427 2.588-2.703 3.337 1.238-.13 2.437-.468 3.541-.937-.837 1.2-1.884 2.269-3.084 3.131z"/>
</svg>
