<svg xmlns="http://www.w3.org/2000/svg" width="35" height="39" viewBox="0 0 35 39">
    <g fill="none" fill-rule="evenodd" stroke="#FFF">
        <path d="M6.095 23.356H30.41c1.983 0 3.591-1.606 3.591-3.589v-7.804L6.095 8.097M15.793 33.657c0 1.846-1.496 3.342-3.343 3.342-1.846 0-3.343-1.496-3.343-3.342 0-1.845 1.497-3.341 3.343-3.341 1.847 0 3.343 1.496 3.343 3.341zM33.172 33.657c0 1.846-1.497 3.342-3.343 3.342-1.847 0-3.343-1.496-3.343-3.342 0-1.845 1.496-3.341 3.343-3.341 1.846 0 3.343 1.496 3.343 3.341z" transform="translate(0 1)"/>
        <path d="M0.009 0.106L6.095 2.838 6.095 30.316 29.829 30.316" transform="translate(0 1)"/>
    </g>
</svg>
