<svg xmlns="http://www.w3.org/2000/svg" width="24" height="24" viewBox="0 0 24 24">
    <g fill="#FFF" fill-rule="evenodd">
        <path d="M10.384 0v.004h2.231c2.932.002 3.428.02 4.791.081 1.387.064 2.14.295 2.641.49.664.258 1.137.566 1.634 1.064.498.498.806.972 1.065 1.635.194.501.426 1.254.49 2.64.061 1.363.08 1.86.082 4.79v1.911c-.003 2.93-.02 3.427-.082 4.79-.064 1.387-.296 2.14-.49 2.64-.258.664-.567 1.136-1.065 1.634-.497.498-.97.806-1.634 1.063-.5.196-1.254.427-2.64.49-1.364.062-1.86.08-4.792.083h-1.912c-2.932-.003-3.428-.02-4.79-.082-1.387-.064-2.14-.296-2.642-.49-.663-.259-1.137-.567-1.635-1.065-.498-.497-.806-.97-1.064-1.634-.195-.501-.427-1.254-.49-2.64-.06-1.318-.078-1.825-.081-4.507v-2.482c.003-2.68.02-3.187.08-4.504.064-1.387.296-2.14.49-2.64.258-.664.567-1.139 1.065-1.636.498-.498.972-.806 1.635-1.065C3.773.375 4.526.144 5.912.08 7.224.02 7.732.003 10.384 0zm1.275 4.36c-4.033 0-7.303 3.27-7.303 7.303 0 4.033 3.27 7.302 7.303 7.302 4.034 0 7.303-3.269 7.303-7.302 0-4.034-3.27-7.304-7.303-7.304zm7.592-1.996v.001c-.942 0-1.707.764-1.707 1.706s.765 1.707 1.707 1.707c.942 0 1.707-.765 1.707-1.707 0-.942-.765-1.707-1.707-1.707z"/>
        <path d="M11.66 6.922c2.617 0 4.74 2.123 4.74 4.74 0 2.619-2.123 4.742-4.74 4.742-2.619 0-4.741-2.123-4.741-4.741 0-2.618 2.122-4.74 4.74-4.74z"/>
    </g>
</svg>
