<svg xmlns="http://www.w3.org/2000/svg" width="42" height="42" viewBox="0 0 42 42">
    <g fill="none" fill-rule="evenodd" stroke="#FFF">
        <path d="M30.742 12.923c-1.024 5.278-5.67 9.263-11.247 9.263-5.513 0-10.116-3.894-11.21-9.08" transform="translate(1 1)"/>
        <path d="M31.571 5.718c-1.03 0-2.011.198-2.92.543C27.142 2.695 23.61.192 19.495.192c-4.007 0-7.451 2.377-9.023 5.793-.656-.168-1.338-.267-2.046-.267-4.548 0-8.234 3.686-8.234 8.234 0 4.547 3.686 8.233 8.234 8.233V36.03c0 2.02 1.637 3.656 3.656 3.656h15.833c2.02 0 3.656-1.636 3.656-3.656V22.185c4.547 0 8.234-3.686 8.234-8.233 0-4.548-3.687-8.234-8.234-8.234zM26.091 20.097c1.456 1.299 3.376 2.088 5.48 2.088M13.906 20.097c-1.456 1.299-3.375 2.088-5.48 2.088" transform="translate(1 1)"/>
    </g>
</svg>
