<svg xmlns="http://www.w3.org/2000/svg" width="46" height="42" viewBox="0 0 46 42">
    <g fill="none" fill-rule="evenodd" stroke="#FFF">
        <path stroke-width=".75" d="M44.25 39.742H.183v-5.807h18.344s.997 3.543 3.789 3.543c2.791 0 3.49-3.543 3.49-3.543H44.25v5.807z" transform="translate(1 1)"/>
        <path d="M.183 33.935L6.464 18.387 37.869 18.387 44.25 33.935M6.464 18.386L2.775 2.936h16.45s1.097 2.066 2.991 2.066c1.895 0 3.59-2.066 3.59-2.066h16.051l-3.988 15.45M2.775 2.936L2.775.18 41.857.18 41.857 2.936" transform="translate(1 1)"/>
        <path d="M15.586 23.356c0 .897-1.138 1.624-2.542 1.624s-2.543-.727-2.543-1.624c0-.897 1.139-1.624 2.543-1.624 1.404 0 2.542.727 2.542 1.624zM24.858 31.743c0 .897-1.138 1.624-2.542 1.624s-2.543-.727-2.543-1.624c0-.896 1.139-1.624 2.543-1.624 1.404 0 2.542.728 2.542 1.624zM38.318 25.97c0 .896-1.138 1.623-2.543 1.623-1.404 0-2.542-.727-2.542-1.624 0-.897 1.138-1.624 2.542-1.624 1.405 0 2.543.727 2.543 1.624zM33.233 30.12c0 .896-1.138 1.623-2.542 1.623-1.405 0-2.543-.727-2.543-1.624 0-.897 1.138-1.623 2.543-1.623 1.404 0 2.542.726 2.542 1.623zM13.369 29.458c0 .897-1.139 1.623-2.543 1.623-1.404 0-2.542-.726-2.542-1.623s1.138-1.624 2.542-1.624 2.543.727 2.543 1.624zM23.288 22.101c0 .897-1.138 1.624-2.542 1.624-1.405 0-2.543-.727-2.543-1.624 0-.896 1.138-1.623 2.543-1.623 1.404 0 2.542.727 2.542 1.623zM31.128 22.722c0 .897-1.139 1.623-2.543 1.623-1.404 0-2.542-.726-2.542-1.623s1.138-1.624 2.542-1.624 2.543.727 2.543 1.624z" transform="translate(1 1)"/>
        <path d="M30.112 18.558c6.306 1.64 10.673 5.204 10.673 9.334 0 2.258-1.305 4.347-3.518 6.044M7.31 33.938c-2.215-1.697-3.522-3.786-3.522-6.046 0-4.266 4.659-7.926 11.298-9.49M10.501 7.266s1.122 1.033 1.122 2.657-1.87 1.993-1.87 3.69c0 1.698 1.496 2.731 1.496 2.731M18.951 7.266s1.122 1.033 1.122 2.657-1.87 1.993-1.87 3.69c0 1.698 1.496 2.731 1.496 2.731M14.9 4.978s1.12 1.033 1.12 2.657-1.869 1.993-1.869 3.69c0 1.698 1.496 2.731 1.496 2.731M15.586 30.442L18.203 28.496M26.043 28.496L23.961 26.247M20.746 26.751L18.203 25.349" transform="translate(1 1)"/>
    </g>
</svg>
