<svg xmlns="http://www.w3.org/2000/svg" width="24" height="17" viewBox="0 0 24 17">
    <path fill="#FFF" d="M12.455 0c1.655.01 7.329.075 8.921.507 1.033.279 1.847 1.102 2.123 2.147C24 4.548 24 8.5 24 8.5v.01c0 .227-.015 3.999-.501 5.835-.276 1.046-1.09 1.868-2.123 2.148-1.752.475-8.441.505-9.288.507h-.177c-.847-.002-7.537-.032-9.289-.507C1.59 16.213.776 15.39.5 14.345.044 12.624.003 9.201-.001 8.593v-.187c.004-.608.045-4.03.501-5.752C.776 1.609 1.59.786 2.622.507 4.215.075 9.89.01 11.543 0zM9.75 5.174v7.392l6-3.696-6-3.696z"/>
</svg>
