<svg xmlns="http://www.w3.org/2000/svg" width="26" height="26" viewBox="0 0 26 26">
    <g fill="none" fill-rule="evenodd" stroke="#006491" stroke-width="1.5">
        <path d="M16.047 8.814c0 2.425-1.965 4.39-4.39 4.39-2.424 0-4.39-1.965-4.39-4.39 0-2.424 1.966-4.39 4.39-4.39 2.425 0 4.39 1.966 4.39 4.39z" transform="translate(1 1)"/>
        <path d="M8.242 11.572c-2.683 1.278-4.537 4.015-4.537 7.184-.024.7.156 1.57.289 1.686 2.05 1.789 4.73 2.872 7.663 2.872 6.438 0 11.657-5.219 11.657-11.656C23.314 5.219 18.095 0 11.657 0S0 5.22 0 11.658c0 1.42.255 2.782.72 4.042" transform="translate(1 1)"/>
        <path d="M15.072 11.572c1.91.91 3.4 2.558 4.1 4.576.052.15.1.303.143.457" transform="translate(1 1)"/>
    </g>
</svg>
