<svg xmlns="http://www.w3.org/2000/svg" width="167" height="37" viewBox="0 0 167 37">
    <g fill="none" fill-rule="evenodd">
        <path fill="#FFF" d="M49.919 30.553h-2.953v-9.642h2.953c3.064 0 4.847 1.793 4.847 4.82.056 2.411-1.616 4.822-4.847 4.822m0-15.024h-8.524c-.279 0-.501.224-.501.504V35.43c0 .28.222.505.5.505h8.58c6.742 0 11.088-4.037 11.088-10.203 0-6.167-4.346-10.203-11.143-10.203M69.92 31.114c-1.449 0-2.674-1.178-2.674-2.691 0-1.458 1.17-2.691 2.674-2.691s2.674 1.177 2.674 2.69c0 1.458-1.17 2.636-2.674 2.692m0-10.372c-4.29 0-7.744 3.476-7.744 7.793 0 4.316 3.454 7.792 7.744 7.792 4.29 0 7.744-3.476 7.744-7.792 0-4.317-3.454-7.793-7.744-7.793M99.002 20.798c-2.006 0-3.956.954-5.126 2.58-.612-1.739-2.06-2.58-4.234-2.58-2.395 0-4.234 1.234-4.847 2.075v-1.178c0-.28-.223-.504-.501-.504h-4.457c-.279 0-.502.224-.502.504V35.43c0 .28.223.505.502.505h4.457c.278 0 .501-.224.501-.505v-8.577c.502-.729 1.337-1.121 2.229-1.177 1.058 0 1.671.616 1.671 1.682v8.128c0 .28.223.505.502.505h4.457c.278 0 .501-.224.501-.505v-8.633c.501-.729 1.337-1.177 2.229-1.177 1.058 0 1.67.616 1.67 1.682v8.128c0 .28.224.505.502.505h4.457c.279 0 .502-.224.502-.505V25.227c0-2.859-1.616-4.429-4.513-4.429M110.758 21.191H106.3c-.279 0-.502.224-.502.505V35.43c0 .28.223.505.502.505h4.457c.278 0 .501-.224.501-.505V21.696c0-.28-.223-.505-.501-.505M108.64 13.903c-1.67 0-3.064 1.402-3.064 3.083 0 1.682 1.393 3.084 3.065 3.084 1.671 0 3.064-1.402 3.064-3.084 0-1.681-1.337-3.083-3.064-3.083M124.129 20.798c-2.842 0-4.402 1.29-5.07 2.075v-1.178c0-.28-.223-.504-.502-.504H114.1c-.278 0-.501.224-.501.504V35.43c0 .28.223.505.501.505h4.457c.279 0 .502-.224.502-.505v-8.577c.557-.729 1.393-1.177 2.34-1.177 1.393 0 2.117.729 2.117 2.13v7.68c0 .28.223.505.501.505h4.457c.279 0 .502-.224.502-.505V25.452c.055-2.916-1.783-4.654-4.847-4.654M138.391 31.114c-1.448 0-2.674-1.178-2.674-2.635 0-1.458 1.17-2.691 2.619-2.691 1.448 0 2.674 1.177 2.674 2.635 0 1.457-1.17 2.69-2.619 2.69m0-10.37c-4.29 0-7.744 3.475-7.744 7.792 0 4.316 3.454 7.792 7.744 7.792 4.29 0 7.744-3.476 7.744-7.792 0-4.26-3.454-7.793-7.744-7.793M150.425 16.426s0-.056 0 0c-.445-1.626-2.005-2.691-3.677-2.355-1.671.337-2.73 1.906-2.395 3.476.278 1.29 1.393 2.243 2.73 2.243-.112.504-.446.953-.947 1.233-.168.112-.168.28-.112.448l.334.505c.056.168.279.224.446.168 3.399-1.458 3.956-4.373 3.621-5.718M154.381 25.564c0-.561.724-.785 1.616-.785 1.393-.056 2.785.392 3.9 1.233.111.056.278.112.39.056.167-.056.278-.112.334-.224l1.504-2.635c.112-.224.056-.56-.167-.673-1.838-1.177-4.011-1.738-6.184-1.681-4.513 0-6.964 2.13-6.574 5.213.724 5.438 9.081 3.588 8.97 5.438 0 .449-.78.729-2.062.729-1.671 0-3.565-.841-4.735-1.57-.112-.056-.279-.112-.39-.056-.168 0-.279.112-.335.224l-1.727 2.915c-.111.225-.056.505.167.673 1.672 1.121 4.346 1.906 6.686 1.906 4.513 0 7.131-1.962 7.131-5.157 0-5.943-8.524-4.149-8.524-5.606M36.214 10.708L26.185.673c-.891-.897-2.284-.897-3.175 0l-8.413 8.409L.669 23.097c-.892.897-.892 2.298 0 3.195l9.972 10.035c.892.897 2.284.897 3.176 0l12.48-12.557 9.805-9.867c.947-.897.947-2.298.112-3.195"/>
        <path fill="#E31837" d="M26.687 14.352c-1.115 1.12-2.953 1.12-4.067 0-1.115-1.122-1.115-2.972 0-4.093 1.114-1.121 2.952-1.121 4.067 0 .557.56.835 1.29.835 2.074 0 .73-.278 1.458-.835 2.019m8.802-2.916l-9.972-10.09c-.502-.505-1.282-.505-1.728 0L12.925 12.22 24.681 24.05l10.808-10.876c.502-.448.502-1.233 0-1.738"/>
        <path fill="#006491" d="M14.485 22.704c1.115-1.12 2.953-1.12 4.123 0 1.114 1.122 1.114 2.972 0 4.149-1.114 1.121-2.953 1.121-4.123 0-.557-.56-.835-1.29-.835-2.074 0-.785.278-1.514.835-2.075zm-4.4 4.037c-1.115 1.121-2.954 1.121-4.124 0-1.114-1.121-1.114-2.971 0-4.149 1.115-1.177 2.953-1.12 4.123 0 1.114 1.178 1.114 2.972 0 4.149zm-8.636-2.915c-.502.504-.502 1.29 0 1.738l9.972 10.034c.502.505 1.282.505 1.727 0l10.809-10.875L12.2 12.95 1.45 23.826z"/>
        <path fill="#FFF" d="M164.41 21.527h.167c.111 0 .167 0 .278-.056.056-.056.056-.112.056-.168 0-.056 0-.112-.056-.168-.056-.056-.167-.056-.223-.056h-.223v.448zm-.446-.673h.78c.167 0 .334.056.445.113.112.112.168.224.168.336 0 .112-.056.224-.112.28-.111.112-.223.168-.334.168.056 0 .111.056.167.056.056.057.111.113.111.169l.279.504h-.501c-.112-.224-.223-.392-.335-.56-.055-.056-.111-.113-.167-.113h-.056v.673h-.445v-1.626zm2.005.841c0-.336-.111-.672-.39-.897-.501-.504-1.281-.504-1.782 0-.502.505-.502 1.346 0 1.85.501.505 1.281.505 1.782 0 .279-.28.39-.616.39-.953zm.335 0c0 .56-.279 1.122-.78 1.402-.223.168-.502.224-.78.224-.892 0-1.616-.729-1.616-1.626 0-.897.724-1.625 1.616-1.625.278 0 .557.056.78.224.223.112.445.336.557.56.111.28.223.561.223.841z"/>
    </g>
</svg>
